<?xml version="1.0" encoding="iso-8859-1"?>
<!-- Generator: Adobe Illustrator 19.0.0, SVG Export Plug-In . SVG Version: 6.00 Build 0)  -->
<svg version="1.1" id="Layer_1" xmlns="http://www.w3.org/2000/svg" xmlns:xlink="http://www.w3.org/1999/xlink" x="0px" y="0px"
	 viewBox="0 0 395.374 395.374" style="enable-background:new 0 0 395.374 395.374;" xml:space="preserve">
<g>
	<g>
		<path d="M387.876,94.902H273.702c11.513-6.518,20.934-14.953,28.182-25.278c12.214-17.399,5.531-36.432-7.382-46.241
			c-12.891-9.793-32.99-11.124-46.457,5.285c-11.166,13.606-18.507,28.396-23.291,41.08c-5.936-7.878-15.366-12.982-25.968-12.982
			h-2.195c-10.602,0-20.032,5.104-25.968,12.982c-4.783-12.684-12.125-27.474-23.291-41.08
			c-13.468-16.409-33.563-15.079-46.457-5.285c-12.913,9.809-19.596,28.843-7.382,46.241c7.248,10.325,16.669,18.76,28.182,25.278
			H7.5c-4.143,0-7.5,3.358-7.5,7.5v78.016c0,4.142,3.357,7.5,7.5,7.5h10.443v183.813c0,4.142,3.357,7.5,7.5,7.5H171.59h52.195
			h146.147c4.143,0,7.5-3.358,7.5-7.5V187.918h10.442c4.143,0,7.5-3.358,7.5-7.5v-78.016
			C395.376,98.26,392.019,94.902,387.876,94.902z M105.771,61.006c-7.118-10.139-3.03-20.203,4.178-25.679
			c3.397-2.581,7.593-4.217,11.901-4.217c4.807,0,9.753,2.038,13.887,7.074c16.036,19.539,23.373,42.41,26.445,55.193
			C136.405,88.52,117.458,77.656,105.771,61.006z M164.09,364.231H32.943V187.918H164.09V364.231z M164.091,172.918H25.531
			c-0.029,0-0.058-0.004-0.087-0.004c-0.029,0-0.058,0.004-0.087,0.004H15v-63.016h149.091V172.918z M216.286,364.231h-37.195
			V187.918h37.195V364.231z M216.286,172.918h-37.195v-63.016h37.195V172.918z M216.286,94.902h-37.195v-5.635
			c0-9.65,7.85-17.5,17.5-17.5h2.195c9.649,0,17.5,7.85,17.5,17.5V94.902z M259.641,38.185c4.134-5.038,9.08-7.074,13.887-7.074
			c4.308,0,8.504,1.637,11.901,4.217c7.208,5.476,11.296,15.54,4.178,25.679c-11.688,16.65-30.635,27.514-56.411,32.371
			C236.268,80.594,243.604,57.724,259.641,38.185z M231.286,364.231V187.918h131.147v176.313H231.286z M380.377,172.918
			L380.377,172.918h-10.356c-0.029,0-0.058-0.004-0.087-0.004s-0.058,0.004-0.087,0.004h-138.56v-63.016h149.09V172.918z"/>
	</g>
</g>
<g>
</g>
<g>
</g>
<g>
</g>
<g>
</g>
<g>
</g>
<g>
</g>
<g>
</g>
<g>
</g>
<g>
</g>
<g>
</g>
<g>
</g>
<g>
</g>
<g>
</g>
<g>
</g>
<g>
</g>
</svg>
