<?xml version="1.0" encoding="iso-8859-1"?>
<!-- Generator: Adobe Illustrator 19.0.0, SVG Export Plug-In . SVG Version: 6.00 Build 0)  -->
<svg version="1.1" id="Layer_1" xmlns="http://www.w3.org/2000/svg" xmlns:xlink="http://www.w3.org/1999/xlink" x="0px" y="0px"
	 viewBox="0 0 330.004 330.004" style="enable-background:new 0 0 330.004 330.004;" xml:space="preserve">
<g id="XMLID_888_">
	<path id="XMLID_889_" d="M325.61,4.395C322.797,1.581,318.98,0,315.002,0h-60c-8.284,0-15,6.716-15,15v7.828L11.939,70.393
		c-6.954,1.451-11.938,7.58-11.938,14.684v100.11c0,7.104,4.983,13.233,11.938,14.684l38.587,8.048l34.969,111.567
		c2.01,6.412,7.927,10.518,14.31,10.518c1.483,0,2.994-0.222,4.484-0.689l57.561-18.018c7.906-2.475,12.309-10.889,9.835-18.794
		l-19.855-63.455l88.172,18.389v7.828c0,8.284,6.716,15,15,15h59.928c8.282,0,14.997-6.713,15-14.996l0.072-240.265
		C330.003,11.025,328.424,7.209,325.61,4.395z M138.575,287.148l-28.938,9.058l-25.473-81.27l34.036,7.099L138.575,287.148z
		 M132.859,194.445c-0.047-0.009-0.094-0.02-0.141-0.029l-67.567-14.092c-0.034-0.007-0.069-0.015-0.104-0.022l-35.045-7.309V97.271
		l210-43.798v163.318L132.859,194.445z M299.935,240.265h-29.933v-5.022V35.022V30h29.995L299.935,240.265z"/>
</g>
<g>
</g>
<g>
</g>
<g>
</g>
<g>
</g>
<g>
</g>
<g>
</g>
<g>
</g>
<g>
</g>
<g>
</g>
<g>
</g>
<g>
</g>
<g>
</g>
<g>
</g>
<g>
</g>
<g>
</g>
</svg>
