<?xml version="1.0" encoding="iso-8859-1"?>
<!-- Generator: Adobe Illustrator 19.0.0, SVG Export Plug-In . SVG Version: 6.00 Build 0)  -->
<svg version="1.1" id="Capa_1" xmlns="http://www.w3.org/2000/svg" xmlns:xlink="http://www.w3.org/1999/xlink" x="0px" y="0px"
	 viewBox="0 0 489.901 489.901" style="enable-background:new 0 0 489.901 489.901;" xml:space="preserve">
<g>
	<g>
		<path d="M94.5,2.05C42.6,2.05,0,54.95,0,119.35c0,55.5,31.7,102.6,73.7,114.4v234.4c0,11.4,9.3,20.8,20.8,20.8s20.8-9.3,20.8-20.8
			v-234.4c42-11.9,73.7-58.9,73.7-114.4C188.9,54.95,146.4,2.05,94.5,2.05z M94.5,195.15c-29.1,0-54-35.3-54-76.8s24.9-76.8,54-76.8
			s54,35.3,54,76.8S123.5,195.15,94.5,195.15z"/>
		<path d="M469.2,0.95c-11.4,0-20.8,9.3-20.8,20.8v122.5c0,21-12.9,39.2-31.1,46.9V25.95c0-11.4-9.3-20.8-20.8-20.8
			c-11.4,0-20.8,9.3-20.8,20.8v164.3c-17.2-8.2-29.1-25.7-29.1-45.9V21.75c0-11.4-9.3-20.8-20.8-20.8s-20.8,9.3-20.8,20.8v122.5
			c0,43.6,30.5,80.3,70.6,89.9v234c0,11.4,9.3,20.8,20.8,20.8c11.4,0,20.8-9.3,20.8-19.7v-235c40.7-9.5,70.9-46.3,72.7-90V21.75
			C490,10.35,480.7,0.95,469.2,0.95z"/>
	</g>
</g>
<g>
</g>
<g>
</g>
<g>
</g>
<g>
</g>
<g>
</g>
<g>
</g>
<g>
</g>
<g>
</g>
<g>
</g>
<g>
</g>
<g>
</g>
<g>
</g>
<g>
</g>
<g>
</g>
<g>
</g>
</svg>
